<svg width="20" height="20" viewBox="0 0 20 20" fill="none" xmlns="http://www.w3.org/2000/svg">
<g clip-path="url(#clip0)">
<path d="M19.6103 6.11871C19.8442 6.03559 20.0003 5.81414 20 5.56594C19.9997 5.31773 19.843 5.09668 19.609 5.0141L10.195 1.69258C10.0688 1.64805 9.93121 1.64805 9.80508 1.69258L0.391016 5.0141C0.156954 5.09664 0.000312968 5.31773 4.68243e-07 5.56594C-0.000312032 5.81414 0.155821 6.03559 0.389688 6.11871L4.11895 7.44449V11.2666C4.11895 11.8975 4.77703 12.4309 6.07492 12.8522C7.20621 13.2194 8.60019 13.4216 10 13.4216C11.3999 13.4216 12.7938 13.2194 13.9252 12.8522C15.223 12.4309 15.8811 11.8975 15.8811 11.2666V7.44449L17.4209 6.89711V12.1934C16.7361 12.4355 16.2441 13.0889 16.2441 13.8555C16.2441 14.6221 16.7361 15.2756 17.4209 15.5177V17.7554C17.4209 18.079 17.6832 18.3414 18.0068 18.3414C18.3304 18.3414 18.5927 18.079 18.5927 17.7554V15.5177C19.2775 15.2756 19.7695 14.6221 19.7695 13.8555C19.7695 13.089 19.2775 12.4355 18.5927 12.1934V6.48047L19.6103 6.11871ZM18.0068 14.4463C17.681 14.4463 17.4159 14.1813 17.4159 13.8555C17.4159 13.5297 17.681 13.2647 18.0068 13.2647C18.3325 13.2647 18.5976 13.5297 18.5976 13.8555C18.5976 14.1813 18.3325 14.4463 18.0068 14.4463ZM10 2.86645L17.6589 5.56875L10 8.29152L2.34105 5.56871L10 2.86645ZM14.7092 11.1783C14.5969 11.2915 14.1949 11.5627 13.2875 11.8215C12.3195 12.0977 11.152 12.2497 10 12.2497C8.84805 12.2497 7.68055 12.0977 6.7125 11.8215C5.80512 11.5627 5.40309 11.2916 5.29078 11.1783V7.86109L9.80371 9.46547C9.86719 9.48805 9.93359 9.49934 9.99996 9.49934C10.0664 9.49934 10.1327 9.48805 10.1962 9.46547L14.7091 7.86109V11.1783H14.7092Z" fill="white"/>
</g>
<defs>
<clipPath id="clip0">
<rect width="20" height="20" fill="white"/>
</clipPath>
</defs>
</svg>
