<svg width="30" height="30" viewBox="0 0 30 30" fill="none" xmlns="http://www.w3.org/2000/svg">
<path d="M28.125 24.375H1.87502C0.839473 24.375 0 25.2145 0 26.25C0 27.2856 0.839473 28.125 1.87502 28.125H28.125C29.1605 28.125 30 27.2856 30 26.25C30 25.2145 29.1605 24.375 28.125 24.375Z" fill="black"/>
<path d="M28.125 13.1249H1.87502C0.839473 13.1249 0 13.9644 0 15C0 16.0355 0.839473 16.875 1.87502 16.875H28.125C29.1605 16.875 30 16.0355 30 15C30 13.9644 29.1605 13.1249 28.125 13.1249Z" fill="black"/>
<path d="M28.125 1.87494H1.87502C0.839473 1.87494 0 2.71441 0 3.74996C0 4.7855 0.839473 5.62497 1.87502 5.62497H28.125C29.1605 5.62497 30 4.7855 30 3.74996C30 2.71441 29.1605 1.87494 28.125 1.87494Z" fill="black"/>
</svg>
