<svg width="15" height="15" viewBox="0 0 15 15" fill="none" xmlns="http://www.w3.org/2000/svg">
<path d="M13.9062 0.625H12.3438C11.7406 0.625 11.25 1.11562 11.25 1.71875V8.90625C11.25 9.50937 11.7406 10 12.3438 10H13.9062C14.5094 10 15 9.50937 15 8.90625V1.71875C15 1.11562 14.5094 0.625 13.9062 0.625Z" fill="#FD5D5D"/>
<path d="M3.19955 0.46875C1.9808 0.46875 0.943298 1.34375 0.737048 2.54375L0.0370479 6.60625C-0.225452 8.1375 0.949548 9.53125 2.49955 9.53125H5.44955C5.44955 9.53125 4.9808 10.4688 4.9808 12.0312C4.9808 13.9062 6.38705 14.5312 7.01205 14.5312C7.63705 14.5312 7.94955 14.2188 7.94955 12.6562C7.94955 11.1713 9.38767 9.97625 10.3127 9.36063V1.61812C9.31205 1.155 7.30892 0.46875 4.19955 0.46875H3.19955Z" fill="#FD5D5D"/>
</svg>
